PathFileType	4	(X/Y/Z)	Patient4_TMGait_0pt4_01_left_34.trc.trc
DataRate	CameraRate	NumFrames	NumMarkers	Units	OrigDataRate	OrigDataStartFrame	OrigNumFrames
76.502732240437	76.502732240437	5	33	mm	76.502732240437	36	       141
Frame#	Time	Sacral			L.Shoulder			Chest			R.Shoulder			Neck			R.ASIS			L.ASIS			R.Thigh.Superior			R.Thigh.Lateral			R.Thigh.Inferior			R.Patella			L.Thigh.Superior			L.Thigh.Lateral			L.Thigh.Inferior			L.Patella			L.Shank.Superior			L.Shank.Lateral			L.Shank.Inferior			R.Shank.Superior			R.Shank.Lateral			R.Shank.Inferior			R.Heel			R.Midfoot.Superior			R.Midfoot.Lateral			R.Toe			L.Heel			L.Midfoot.Lateral			L.Midfoot.Superior			L.Toe			L.Elbow			L.Wrist			R.Elbow			R.Wrist			
		X1	Y1	Z1	X2	Y2	Z2	X3	Y3	Z3	X4	Y4	Z4	X5	Y5	Z5	X6	Y6	Z6	X7	Y7	Z7	X8	Y8	Z8	X9	Y9	Z9	X10	Y10	Z10	X11	Y11	Z11	X12	Y12	Z12	X13	Y13	Z13	X14	Y14	Z14	X15	Y15	Z15	X16	Y16	Z16	X17	Y17	Z17	X18	Y18	Z18	X19	Y19	Z19	X20	Y20	Z20	X21	Y21	Z21	X22	Y22	Z22	X23	Y23	Z23	X24	Y24	Z24	X25	Y25	Z25	X26	Y26	Z26	X27	Y27	Z27	X28	Y28	Z28	X29	Y29	Z29	X30	Y30	Z30	X31	Y31	Z31	X32	Y32	Z32	X33	Y33	Z33	

36	42.617500000000	834.592295136229	999.335264150152	513.438657952746	977.017558319802	1433.712818915625	326.393744575350	1094.918345994513	1370.838569941799	479.185487634565	1020.866929900268	1439.408924803625	659.627909925878	968.235860887554	1494.107138556417	485.710046311344	1069.805257682253	938.666387481117	615.838937106058	1040.728944934471	965.054987041606	342.464393912005	1078.003360143110	726.363679621344	590.653217890081	981.387170424536	627.902708919146	656.765600824041	1047.226982924497	562.009140443607	579.736065037580	1031.445323522187	465.010274398854	592.718982819101	1111.561111057046	764.744664525305	375.375996843115	1042.351426708977	637.693469455871	311.428803111587	1136.247870994992	569.819109920320	374.274174176186	1144.603804550232	498.669337257446	381.559402967616	1120.351482948194	424.554237335736	372.653936752302	1036.384500243851	307.802905139271	318.508034412123	1091.593094636039	196.671938967916	386.090769358852	972.392479320179	389.158105537869	600.262504670633	872.020657625066	316.518833976091	667.454344526321	879.513880051527	210.770490271593	608.194213856669	702.231453250727	78.885182334943	589.595923600109	881.200426487103	101.151921053605	616.537716229307	786.449755331520	52.941263983384	657.589690077134	990.692660249135	37.651363097676	636.053862118031	968.700985343632	38.454337435148	421.159231033194	1044.540198927754	36.771120174445	342.469579259135	1126.798040213034	97.642592499517	371.532975068028	1255.927666600800	46.168170416515	345.375428568511	913.611127228153	1086.144361882602	215.213612688253	959.010384232202	827.662789014278	215.934346704101	1085.115848955432	1095.949676916637	772.416739391947	1325.023429771170	1047.839746853541	706.239983020271	
37	42.630571428571	835.364129053810	999.803729989947	509.608243665952	977.908466323720	1434.640127011118	323.291547894307	1095.167603128647	1371.801280259090	476.598483222805	1020.146843792537	1440.196435646904	656.689889338466	968.305853050192	1494.904529637712	482.480972782335	1070.210470860173	939.586479394325	612.758462150628	1042.151605487118	965.711716613729	339.386067087299	1081.017979590198	727.509659209593	588.316849465584	985.975634041554	628.185819134359	654.796936544555	1053.352291866353	562.567740780690	578.295629494960	1038.481507793250	464.135713205834	592.855995037150	1111.859865745410	764.178698066203	371.774387059197	1040.549897095968	637.578815611961	309.062826846891	1134.018912508843	568.995966783170	371.475118822701	1141.775850166628	498.063990396462	379.455039907733	1117.242982546518	423.946545660856	370.900753565116	1032.678916151573	307.423843026623	317.106135652769	1087.191708577498	196.374311368578	385.415049122549	977.182824523829	389.301187477062	600.238495579585	874.420892913378	319.643883630894	666.921672017213	880.147045252351	213.209877590879	608.783283528618	699.518462859164	86.160182630839	590.130510168979	879.013420241466	102.101278311844	617.104257855154	782.717442908311	56.780238021023	657.858381282766	985.665178466316	37.258292581782	636.042643392888	963.463325440919	38.410014652958	421.075693816387	1039.275462166305	36.649609610105	342.312430493028	1121.567770165425	97.554995373613	371.323407952950	1250.732459190678	46.009855470419	345.279659342361	918.760163546612	1086.350213309609	211.373761431725	966.506344398234	828.391013035549	212.247001728315	1082.450072266466	1096.491428558787	770.000198220584	1322.333375899792	1044.803476719711	706.203318529163	
38	42.643642857143	835.996088204082	1000.207700842220	505.841214586064	978.889639287411	1435.468988611365	320.117602180998	1095.381902073611	1372.676961820925	474.019920083288	1019.290520427191	1440.916322079713	653.702555171245	968.359690695078	1495.623723761624	479.165720725214	1070.496052901765	940.457994925321	609.783168519520	1043.489834680994	966.222333919942	336.431617946166	1084.484146310116	728.743124657613	586.070913120897	991.293594579174	628.372083930023	652.934551818094	1060.306602454833	563.204465723831	576.906389762003	1046.369253556648	463.343490977007	592.989020459941	1111.840691616333	763.405245386095	368.135529267612	1038.401343905437	637.440397089948	306.583713465683	1131.465469676905	568.136464318015	368.511861627818	1138.623863788539	497.424802164386	377.044584328665	1113.820133829708	423.318768709981	368.882232899447	1028.603077917349	306.974449106209	315.580557578022	1082.624620974303	196.067068567604	384.581306454996	982.854438743313	389.517775544492	600.242782359552	877.706532175149	323.061474314475	666.413597890843	881.468624989752	216.004310781992	609.384080123011	697.416690737718	94.485727643880	590.619850650640	877.203164172430	103.334761078245	617.625343855939	779.299983075502	61.417890627747	658.108063705309	980.624905399159	36.761256066249	636.075343129146	958.168016548503	38.356627755250	420.992577686371	1033.949293457399	36.494058935425	342.144060705833	1116.286932469209	97.419064246104	371.075951445932	1245.480027995728	45.814597313920	345.197433200025	924.145913225359	1086.505725415475	207.377006427906	974.604041281723	829.159074027218	208.422271362874	1079.247146713453	1096.904193487688	767.614558284033	1318.953023578363	1040.720029116209	706.542843986397	
39	42.656714285714	836.451643672453	1000.527673935707	502.178988852934	979.962839082929	1436.152213055203	316.894310224161	1095.566151985710	1373.422702887127	471.470657576053	1018.321512512384	1441.557612886908	650.682880653763	968.414900127073	1496.237302334688	475.793667802148	1070.635774391515	941.248659104818	606.949389771957	1044.702598919357	966.586477033336	333.622316295661	1088.371693012956	730.086523710573	583.927108367804	997.315751536210	628.483250968537	651.176531469793	1068.052145073157	563.953477798031	575.571046517565	1055.067908562224	462.685665079470	593.064511679655	1111.517861797722	762.490036102773	364.525827293062	1036.011635347149	637.303864669529	304.019625005495	1128.669808843787	567.271166039292	365.448598036385	1135.220914074149	496.767097347596	374.390840286596	1110.157783483481	422.684341476284	366.651476614961	1024.247391490209	306.482743703763	313.944200453972	1077.936142654512	195.758740177871	383.606866367467	989.386378260921	389.833342965437	600.211741619485	881.899495744741	326.781408604391	665.895507570658	883.474255822033	219.191846276988	609.935020364970	696.007884259448	103.911369741077	591.010242346994	875.779996819677	104.972728256967	618.075128144632	776.253055754189	66.963197719456	658.300634687181	975.602074952839	36.137672059951	636.171298230863	952.845165133954	38.304679403648	420.899718025946	1028.593042446828	36.321082151921	341.958410479094	1110.981938916440	97.253840126570	370.787679021082	1240.197411800109	45.602637210385	345.115259899357	929.775690920608	1086.578036897914	203.240914426513	983.290441763556	829.938231642833	204.474447111290	1075.522142526752	1097.170108361148	765.237982974687	1314.830784430192	1035.558341320692	707.219100006347	
40	42.669785714286	836.703583467496	1000.752006793916	498.653449169093	981.116554671873	1436.653047435824	313.648875247341	1095.721133906726	1374.008323801452	468.971807879491	1017.264802153672	1442.117380095534	647.652723888612	968.485425782771	1496.729309878542	472.396147640205	1070.610632022180	941.937294479699	604.290470410286	1045.758816591756	966.816028360456	330.976581946076	1092.620642996887	731.570675554406	581.894002126837	1003.969155706323	628.564008712331	649.516101849109	1076.498854024374	564.863507122563	574.289502883584	1064.496702190284	462.227475733148	593.035333153354	1110.925999925509	761.500209837467	360.998401816675	1033.465567366830	637.183719352788	301.421110467530	1125.706656026292	566.421462416005	362.357171224110	1131.640369762887	496.104380304229	371.583630631655	1106.329342415484	422.056066615795	364.284997251012	1019.700277018426	305.977614413062	312.235812042569	1073.167486669822	195.455664398646	382.525834930144	996.715809194704	390.285769736894	600.084329907006	886.977866520652	330.808858815997	665.327813573913	886.137470943461	222.803493537638	610.370486035752	695.363180334623	114.424096880612	591.237585881642	874.760939954080	107.139048911433	618.431844942295	773.641218108176	73.483539594502	658.390137859721	970.652591155228	35.387507759300	636.341856532256	947.518976982669	38.261837006813	420.792034233229	1023.232346400243	36.146032218216	341.755280093733	1105.673451119297	97.077130069987	370.464004666047	1234.906371632147	45.390724202472	345.022785399109	935.660922275874	1086.541527805735	198.994030268111	992.554264764276	830.707499109391	200.421715785578	1071.298046973608	1097.282339660642	762.853904713699	1309.908197955362	1029.308849578119	708.183987274369	
